<?xml version="1.0" encoding="UTF-8"?>
<svg width="16px" height="16px" viewBox="0 0 16 16" version="1.1" xmlns="http://www.w3.org/2000/svg" xmlns:xlink="http://www.w3.org/1999/xlink">
    <title>x-circle</title>
    <g id="Page-1" stroke="none" stroke-width="1" fill="none" fill-rule="evenodd">
        <g id="x-circle" fill="#E5E7EB">
            <path d="M8,16 C12.4183,16 16,12.4183 16,8 C16,3.58172 12.4183,0 8,0 C3.58172,0 0,3.58172 0,8 C0,12.4183 3.58172,16 8,16 Z M6.70711,5.29289 C6.31658,4.90237 5.68342,4.90237 5.29289,5.29289 C4.90237,5.68342 4.90237,6.31658 5.29289,6.70711 L6.58579,8 L5.29289,9.2929 C4.90237,9.6834 4.90237,10.3166 5.29289,10.7071 C5.68342,11.0976 6.31658,11.0976 6.70711,10.7071 L8,9.4142 L9.2929,10.7071 C9.6834,11.0976 10.3166,11.0976 10.7071,10.7071 C11.0976,10.3166 11.0976,9.6834 10.7071,9.2929 L9.4142,8 L10.7071,6.70711 C11.0976,6.31658 11.0976,5.68342 10.7071,5.29289 C10.3166,4.90237 9.6834,4.90237 9.2929,5.29289 L8,6.58579 L6.70711,5.29289 Z" id="Shape"></path>
        </g>
    </g>
</svg>